<svg version="1.1" xmlns="http://www.w3.org/2000/svg" viewBox="0 0 335.8643292682932 319" width="335.8643292682932" height="319">
  <!-- svg-source:excalidraw -->
  
  <defs>
    <style>
      @font-face {
        font-family: "Virgil";
        src: url("https://excalidraw.com/Virgil.woff2");
      }
      @font-face {
        font-family: "Cascadia";
        src: url("https://excalidraw.com/Cascadia.woff2");
      }
    </style>
  </defs>
  <g stroke-linecap="round" transform="translate(54.21189024390287 55.57926829268297) rotate(0 135.82621951219517 123.97560975609753)"><path d="M0 0 C90.42 0, 180.84 0, 271.65 0 M0 0 C100.91 0, 201.83 0, 271.65 0 M271.65 0 C271.65 51.24, 271.65 102.49, 271.65 247.95 M271.65 0 C271.65 50.99, 271.65 101.99, 271.65 247.95 M271.65 247.95 C163.22 247.95, 54.78 247.95, 0 247.95 M271.65 247.95 C198.95 247.95, 126.26 247.95, 0 247.95 M0 247.95 C0 172.29, 0 96.63, 0 0 M0 247.95 C0 166.96, 0 85.97, 0 0" stroke="#c92a2a" stroke-width="1" fill="none"></path></g><g stroke-linecap="round"><g transform="translate(142.6356707317077 54.66768292682957) rotate(0 0 124.43140243902434)"><path d="M0 0 C0 78.24, 0 156.47, 0 248.86 M0 0 C0 64.62, 0 129.24, 0 248.86" stroke="#c92a2a" stroke-width="1" fill="none"></path></g></g><g stroke-linecap="round"><g transform="translate(235.61737804878067 54.66768292682957) rotate(0 1.8231707317073642 123.97560975609753)"><path d="M0 0 C1.06 71.87, 2.11 143.75, 3.65 247.95 M0 0 C0.91 61.67, 1.81 123.34, 3.65 247.95" stroke="#c92a2a" stroke-width="1" fill="none"></path></g></g><g stroke-linecap="round"><g transform="translate(50.56554878048837 134.8871951219512) rotate(0 135.37042682926824 -0.45579268292684105)"><path d="M0 0 C101.12 -0.34, 202.24 -0.68, 270.74 -0.91 M0 0 C97.94 -0.33, 195.88 -0.66, 270.74 -0.91" stroke="#c92a2a" stroke-width="1" fill="none"></path></g></g><g stroke-linecap="round"><g transform="translate(50.56554878048837 219.66463414634143) rotate(0 137.1935975609755 -0.45579268292684105)"><path d="M0 0 C94.84 -0.32, 189.69 -0.63, 274.39 -0.91 M0 0 C72.27 -0.24, 144.53 -0.48, 274.39 -0.91" stroke="#c92a2a" stroke-width="1" fill="none"></path></g></g><g stroke-linecap="round"><g transform="translate(54.21189024390287 33.70121951219505) rotate(0 134.91463414634143 0.45579268292682684)"><path d="M0 0 C89.39 0.3, 178.77 0.6, 269.83 0.91 M0 0 C89.47 0.3, 178.95 0.6, 269.83 0.91" stroke="#5f3dc4" stroke-width="1" fill="none"></path></g></g><g stroke-linecap="round"><g transform="translate(37.803353658536935 53.756097560975604) rotate(0 -0.9115853658536821 127.6219512195122)"><path d="M0 0 C-0.69 96.42, -1.38 192.84, -1.82 255.24 M0 0 C-0.42 58.62, -0.84 117.24, -1.82 255.24" stroke="#5f3dc4" stroke-width="1" fill="none"></path></g></g><g transform="translate(168.1600609756099 10) rotate(0 20.054878048780495 11.850609756097555)"><text x="20.054878048780484" y="16.701219512195113" font-family="Virgil, Segoe UI Emoji" font-size="18.23170731707317px" fill="#5f3dc4" text-anchor="middle" style="white-space: pre;" direction="ltr">rows</text></g><g transform="translate(1.3399390243903326 157.67682926829264) rotate(270 32.361280487804834 23.70121951219511)"><text x="32.36128048780486" y="16.701219512195113" font-family="Virgil, Segoe UI Emoji" font-size="18.23170731707316px" fill="#5f3dc4" text-anchor="middle" style="white-space: pre;" direction="ltr">columns</text><text x="32.36128048780486" y="40.402439024390226" font-family="Virgil, Segoe UI Emoji" font-size="18.23170731707316px" fill="#5f3dc4" text-anchor="middle" style="white-space: pre;" direction="ltr"></text></g><g transform="translate(89.76371951219585 85.66158536585374) rotate(0 2.7347560975609895 11.850609756097555)"><text x="2.734756097560974" y="16.701219512195113" font-family="Virgil, Segoe UI Emoji" font-size="18.231707317073152px" fill="#5f3dc4" text-anchor="middle" style="white-space: pre;" direction="ltr">1</text></g><g transform="translate(184.5685975609763 84.75000000000011) rotate(0 6.836890243902417 11.850609756097555)"><text x="6.836890243902436" y="16.701219512195113" font-family="Virgil, Segoe UI Emoji" font-size="18.231707317073166px" fill="#5f3dc4" text-anchor="middle" style="white-space: pre;" direction="ltr">2</text></g><g transform="translate(278.4618902439033 87.48475609756088) rotate(0 6.836890243902417 11.850609756097555)"><text x="6.836890243902436" y="16.701219512195113" font-family="Virgil, Segoe UI Emoji" font-size="18.231707317073166px" fill="#5f3dc4" text-anchor="middle" style="white-space: pre;" direction="ltr">3</text></g><g transform="translate(84.29420731707387 168.6158536585367) rotate(0 6.381097560975604 11.850609756097555)"><text x="6.381097560975608" y="16.701219512195113" font-family="Virgil, Segoe UI Emoji" font-size="18.231707317073166px" fill="#5f3dc4" text-anchor="middle" style="white-space: pre;" direction="ltr">4</text></g><g transform="translate(59.21189024390287 167.55487804878044) rotate(0 130.82621951219517 12)"><text x="130.8262195121951" y="17" font-family="Virgil, Segoe UI Emoji" font-size="18.170308265582655px" fill="#5f3dc4" text-anchor="middle" style="white-space: pre;" direction="ltr">5</text></g><g transform="translate(270.25762195121933 167.70426829268285) rotate(0 6.381097560975604 11.850609756097555)"><text x="6.381097560975608" y="16.701219512195113" font-family="Virgil, Segoe UI Emoji" font-size="18.231707317073166px" fill="#5f3dc4" text-anchor="middle" style="white-space: pre;" direction="ltr">6</text></g><g transform="translate(90.67530487804947 253.3932926829268) rotate(0 5.469512195121922 11.850609756097555)"><text x="5.469512195121948" y="16.701219512195113" font-family="Virgil, Segoe UI Emoji" font-size="18.231707317073152px" fill="#5f3dc4" text-anchor="middle" style="white-space: pre;" direction="ltr">7</text></g><g transform="translate(180.0106707317077 253.3932926829268) rotate(0 7.292682926829286 11.850609756097555)"><text x="7.292682926829265" y="16.701219512195113" font-family="Virgil, Segoe UI Emoji" font-size="18.231707317073166px" fill="#5f3dc4" text-anchor="middle" style="white-space: pre;" direction="ltr">8</text></g><g transform="translate(269.34603658536616 251.57012195121945) rotate(0 5.925304878048792 11.850609756097555)"><text x="5.925304878048778" y="16.701219512195113" font-family="Virgil, Segoe UI Emoji" font-size="18.231707317073162px" fill="#5f3dc4" text-anchor="middle" style="white-space: pre;" direction="ltr">9</text></g></svg>